<svg xmlns="http://www.w3.org/2000/svg" viewBox="0 0 512 512" role="img" aria-label="Clear Path Regulatory logo">
  <defs>
    <linearGradient id="g1" x1="0" y1="0" x2="1" y2="1">
      <stop offset="0" stop-color="#28b0b0"/>
      <stop offset="1" stop-color="#1a6fae"/>
    </linearGradient>
    <linearGradient id="g2" x1="0" y1="0" x2="0" y2="1">
      <stop offset="0" stop-color="#0b1d3a"/>
      <stop offset="1" stop-color="#071423"/>
    </linearGradient>
    <filter id="soft" x="-20%" y="-20%" width="140%" height="140%">
      <feDropShadow dx="0" dy="10" stdDeviation="12" flood-color="rgba(0,0,0,.25)"/>
    </filter>
  </defs>

  <!-- Rounded-square badge -->
  <rect x="40" y="40" width="432" height="432" rx="96" fill="url(#g1)" filter="url(#soft)"/>

  <!-- Inner dark panel to add depth -->
  <path d="M128 118c46 0 76 12 110 40 28 23 44 52 55 91 10 36 13 86 13 163H128c-39 0-70-31-70-70V188c0-39 31-70 70-70z" fill="url(#g2)" opacity=".92"/>

  <!-- The 'path' / river -->
  <path d="M152 156c54 0 92 14 130 46 28 23 44 52 55 91 2 7 4 15 5 23-27-20-62-35-105-42-66-11-116 4-160 28 19-26 47-51 87-70 40-19 71-27 96-28-34-31-70-48-108-48z" fill="#ffffff" opacity=".98"/>

  <!-- Side accent -->
  <path d="M110 356c34-34 84-60 158-48 48 8 84 28 109 52v44c0 26-21 48-48 48H159c-27 0-49-22-49-49v-47z" fill="#0a2e55" opacity=".88"/>

  <!-- Cross -->
  <path d="M366 108h-40c-8 0-14 6-14 14v40h-40c-8 0-14 6-14 14v40c0 8 6 14 14 14h40v40c0 8 6 14 14 14h40c8 0 14-6 14-14v-40h40c8 0 14-6 14-14v-40c0-8-6-14-14-14h-40v-40c0-8-6-14-14-14z" fill="#071423"/>
</svg>
